<svg xmlns="http://www.w3.org/2000/svg"  viewBox="0 0 50 50" width="50px" height="50px"><path d="M 18.5 2 C 13.847154 2 10 5.8471545 10 10.5 C 10 13.782771 11.966575 16.587545 14.728516 18 C 11.966575 19.412455 10 22.217229 10 25.5 C 10 28.782771 11.966575 31.587545 14.728516 33 C 11.966575 34.412455 10 37.217229 10 40.5 C 10 45.152846 13.847154 49 18.5 49 C 23.152846 49 27 45.152846 27 40.5 L 27 33 L 27 29.673828 C 28.337414 32.215722 30.919103 34 34 34 C 38.429915 34 42 30.429915 42 26 C 42 22.355827 39.536003 19.417 36.212891 18.445312 C 39.540743 17.289018 42 14.194026 42 10.5 C 42 5.8471545 38.152846 2 33.5 2 L 26 2 L 18.5 2 z M 18.5 4 L 25 4 L 25 17 L 18.5 17 C 14.952846 17 12 14.047154 12 10.5 C 12 6.9528455 14.952846 4 18.5 4 z M 27 4 L 33.5 4 C 37.047154 4 40 6.9528455 40 10.5 C 40 14.047154 37.047154 17 33.5 17 L 27 17 L 27 4 z M 18.5 19 L 25 19 L 25 32 L 18.5 32 C 14.952846 32 12 29.047154 12 25.5 C 12 21.952846 14.952846 19 18.5 19 z M 27 19 L 30.326172 19 C 28.897285 19.751807 27.751807 20.897285 27 22.326172 L 27 19 z M 34 20 C 37.370085 20 40 22.629915 40 26 C 40 29.370085 37.370085 32 34 32 C 30.629915 32 28 29.370085 28 26 C 28 22.629915 30.629915 20 34 20 z M 18.5 34 L 25 34 L 25 40.5 C 25 44.047154 22.047154 47 18.5 47 C 14.952846 47 12 44.047154 12 40.5 C 12 36.952846 14.952846 34 18.5 34 z"/></svg>